<?xml version="1.0" standalone="no"?>
<!DOCTYPE svg PUBLIC "-//W3C//DTD SVG 20010904//EN"
 "http://www.w3.org/TR/2001/REC-SVG-20010904/DTD/svg10.dtd">
<svg version="1.0" xmlns="http://www.w3.org/2000/svg"
 width="2000.000000pt" height="2000.000000pt" viewBox="0 0 2000.000000 2000.000000"
 preserveAspectRatio="xMidYMid meet">

<g transform="translate(0.000000,2000.000000) scale(0.100000,-0.100000)"
fill="#000000" stroke="none">
<path d="M1671 18244 c14 -16 241 -272 504 -569 263 -297 490 -552 504 -568
l27 -27 339 -31 c187 -16 349 -32 360 -34 11 -3 98 -72 194 -155 199 -171 151
-153 454 -174 109 -8 200 -16 201 -17 3 -4 -28 -306 -39 -381 l-5 -38 125 0
126 0 -6 -32 c-3 -18 -14 -107 -26 -197 -11 -91 -22 -167 -24 -171 -2 -4 -69
2 -147 12 -400 52 -713 110 -958 177 -79 22 -146 39 -147 37 -2 -2 195 -227
438 -500 l441 -498 -11 -101 c-7 -56 -14 -121 -17 -144 l-6 -43 136 0 136 0 0
-24 c0 -22 -406 -3296 -429 -3461 -6 -38 -13 -95 -16 -125 -4 -30 -8 -66 -10
-80 -2 -14 -7 -50 -10 -80 -3 -30 -8 -66 -10 -80 -2 -14 -16 -119 -30 -235
-14 -115 -28 -228 -31 -250 -5 -43 -12 -97 -19 -157 -3 -21 -7 -55 -10 -75 -2
-21 -34 -276 -70 -568 -36 -291 -69 -543 -73 -560 -8 -29 -8 -29 -52 42 -25
40 -49 71 -55 69 -16 -4 -137 -251 -193 -391 -140 -357 -211 -703 -216 -1060
-6 -363 41 -636 165 -944 37 -92 49 -136 48 -170 -2 -40 11 -72 91 -231 107
-215 182 -353 292 -537 43 -72 78 -134 78 -137 0 -3 -23 -6 -51 -6 -48 0 -50
-1 -43 -22 30 -100 115 -194 251 -278 84 -52 93 -62 200 -205 132 -177 307
-389 439 -533 52 -56 94 -106 94 -110 0 -12 -179 -139 -283 -201 -321 -192
-797 -352 -1199 -403 -70 -9 -98 -16 -98 -26 0 -26 50 -163 84 -230 86 -171
264 -387 422 -513 229 -182 535 -327 864 -408 224 -55 327 -66 615 -65 285 0
407 12 670 65 279 56 519 129 845 259 l55 21 -59 -53 c-109 -98 -170 -137
-329 -209 -86 -40 -155 -74 -153 -76 8 -8 391 27 477 42 179 34 402 106 537
174 179 91 291 186 502 428 63 72 116 130 118 128 1 -1 9 -45 17 -97 32 -214
102 -370 323 -716 78 -123 160 -258 181 -300 82 -165 130 -342 131 -482 l0
-85 -83 -1 c-148 -2 -238 -61 -250 -165 -19 -167 71 -287 250 -334 38 -10 59
-11 63 -5 5 7 37 7 101 0 58 -7 164 -9 279 -5 l185 7 97 -36 c133 -49 240 -61
410 -46 73 6 161 17 196 25 35 8 78 15 95 15 67 1 153 60 176 123 14 35 14 98
1 131 l-10 26 176 0 c164 0 176 -1 169 -18 -19 -49 -16 -107 7 -151 35 -67 91
-102 180 -112 40 -4 94 -13 120 -18 26 -6 105 -15 176 -22 163 -14 266 -2 404
46 l103 36 190 -6 c105 -3 226 -2 270 4 48 5 82 6 85 0 4 -5 31 -2 65 6 173
45 265 158 253 310 -7 87 -30 120 -106 157 -55 27 -75 32 -148 32 l-84 1 0 66
c0 87 23 215 56 314 44 132 118 266 268 489 248 366 297 472 329 710 l12 85
150 -91 c790 -478 1370 -722 1888 -794 159 -23 482 -14 621 16 277 60 522 173
758 351 111 84 345 320 439 444 293 386 534 891 683 1430 23 83 86 373 86 396
0 5 -71 -62 -158 -150 -86 -87 -191 -183 -232 -213 -172 -125 -347 -207 -535
-249 -154 -34 -443 -30 -577 7 -13 4 9 34 96 134 62 70 159 186 215 256 l102
128 107 36 c252 86 412 199 470 331 l20 46 -82 7 c-76 5 -186 30 -186 42 0 2
28 48 61 101 44 69 97 131 183 217 392 391 612 829 692 1381 24 164 24 522 0
694 -49 356 -153 718 -279 968 l-34 66 -65 -99 c-35 -54 -102 -145 -147 -202
-109 -135 -291 -333 -300 -327 -5 2 -11 33 -14 67 -4 35 -18 155 -32 268 -13
113 -43 356 -65 540 -22 184 -42 351 -45 370 -6 49 -84 685 -90 740 -6 56 -49
408 -76 630 -11 91 -22 185 -25 210 -9 76 -24 203 -29 236 -3 18 -11 87 -19
155 -13 105 -46 384 -121 1004 -8 66 -21 179 -30 250 -9 72 -18 146 -20 165
-2 19 -11 94 -20 165 -9 72 -25 202 -35 290 -11 88 -22 178 -25 200 -3 22 -18
155 -35 295 -17 140 -44 363 -60 495 -17 132 -30 250 -30 263 l0 22 318 0 318
0 -13 118 c-22 193 -66 123 425 677 238 268 431 489 429 491 -1 2 -68 -15
-147 -37 -268 -73 -580 -129 -1053 -189 -283 -36 -407 -46 -407 -34 0 5 -11
101 -25 214 -14 113 -25 208 -25 213 0 4 54 7 120 7 95 0 120 3 120 14 0 17
-28 298 -35 352 l-6 42 98 6 c54 3 220 13 368 21 413 23 345 0 558 185 l183
158 349 26 c297 22 352 29 367 43 32 33 1036 1168 1035 1170 -1 1 -106 -25
-232 -58 -1332 -343 -3535 -547 -6570 -609 -1028 -21 -3099 -11 -4105 20
-2231 69 -3995 226 -5205 464 -194 39 -709 160 -771 182 -15 6 -14 1 7 -22z
m4599 -1679 c493 -17 1035 -35 1235 -40 127 -3 293 -7 370 -10 826 -26 3434
-26 4145 0 63 2 214 7 335 10 241 6 329 9 1010 34 253 10 461 17 463 16 1 -1
8 -75 14 -163 l12 -162 133 0 c127 0 133 -1 133 -20 0 -23 27 -397 35 -477 l5
-53 -53 -1 c-28 0 -59 -2 -67 -3 -8 -2 -89 -7 -180 -11 -91 -4 -176 -8 -190
-10 -14 -1 -106 -6 -205 -9 -99 -4 -205 -9 -235 -11 -30 -2 -136 -7 -235 -10
-99 -3 -220 -8 -270 -10 -49 -2 -205 -7 -345 -10 -140 -4 -291 -8 -335 -10
-191 -10 -1212 -20 -1940 -20 -722 0 -1942 12 -1955 19 -3 2 -133 7 -290 10
-157 4 -325 9 -375 11 -49 2 -164 7 -255 10 -166 5 -310 11 -475 20 -49 3
-146 7 -215 10 -69 3 -152 8 -185 10 -33 2 -121 7 -195 11 -74 3 -144 7 -156
9 -11 2 -85 6 -165 10 -79 4 -146 9 -149 10 -4 3 34 504 39 523 1 1 59 2 130
2 l129 0 6 53 c3 28 8 95 12 147 8 135 7 131 62 126 26 -3 117 -8 202 -11z
m7948 -1784 c10 -6 17 -65 27 -226 3 -49 8 -106 10 -125 3 -19 7 -75 10 -125
3 -49 8 -110 10 -135 3 -25 7 -79 10 -120 3 -41 7 -95 10 -120 2 -25 7 -92 10
-150 3 -58 8 -121 10 -140 3 -19 14 -159 25 -310 11 -151 22 -302 25 -335 3
-33 9 -121 15 -195 6 -74 13 -160 15 -190 3 -30 7 -89 10 -130 3 -41 12 -160
20 -265 9 -104 18 -232 22 -283 l6 -94 -66 41 c-37 22 -67 38 -67 35 0 -3 13
-55 30 -117 70 -268 65 -520 -16 -767 -140 -421 -552 -877 -1104 -1220 -71
-44 -132 -80 -134 -80 -3 0 13 37 35 82 72 145 209 511 196 524 -8 8 -256
-104 -372 -168 -492 -273 -1014 -725 -1406 -1220 -44 -57 -85 -107 -90 -113
-27 -28 174 478 319 805 145 329 222 601 264 930 19 157 16 602 -5 760 -49
352 -145 689 -283 994 -53 117 -185 349 -193 340 -2 -2 -20 -54 -38 -115 -18
-61 -46 -136 -62 -167 -30 -59 -118 -182 -129 -181 -4 0 -34 57 -67 126 -281
591 -639 995 -1073 1213 -411 206 -940 219 -1397 35 -86 -35 -200 -94 -193
-100 2 -2 84 -86 183 -187 253 -258 402 -459 525 -713 102 -210 166 -424 189
-637 12 -104 13 -245 2 -291 -6 -28 -7 -28 -32 25 -81 163 -300 411 -553 623
l-59 49 7 -110 c23 -354 -113 -1007 -374 -1799 -107 -324 -141 -491 -156 -750
-6 -112 9 -384 23 -423 4 -10 -72 60 -168 153 -328 320 -623 546 -961 740
-103 58 -376 185 -399 185 -16 0 110 -340 190 -513 23 -49 41 -91 41 -93 0 -6
-102 56 -233 143 -433 288 -775 651 -937 996 -101 215 -135 379 -127 612 5
129 10 170 41 289 19 77 34 141 33 143 -2 1 -50 -28 -108 -66 -114 -75 -242
-183 -331 -279 -31 -34 -60 -62 -63 -62 -3 0 -4 15 -1 33 6 34 7 45 31 342 36
440 106 1284 110 1333 3 28 7 76 9 105 3 28 7 79 10 112 3 33 8 89 11 125 13
161 36 440 40 490 3 30 7 87 10 125 3 39 8 90 10 115 2 25 7 81 10 125 4 44 8
96 10 115 2 19 7 73 10 120 3 47 8 97 11 111 l5 26 4299 0 c2364 0 4303 -3
4308 -6z m-3960 -3278 c7 -65 30 -298 52 -518 22 -220 43 -420 46 -444 l6 -45
60 125 c118 243 252 582 322 812 15 48 30 87 34 87 18 0 191 -271 282 -443
139 -263 267 -616 316 -876 10 -50 21 -91 24 -91 4 0 65 168 135 373 70 204
134 388 142 407 l14 34 35 -59 c81 -134 165 -326 202 -461 l20 -71 -38 -149
c-43 -168 -103 -332 -196 -540 -130 -291 -274 -657 -354 -899 -29 -89 -91
-205 -109 -205 -4 0 -15 25 -26 56 -10 30 -44 102 -76 159 l-57 105 25 67 c52
145 66 227 66 403 1 283 -68 548 -203 785 -42 72 -133 185 -150 185 -4 0 -27
-30 -51 -67 -26 -41 -125 -151 -245 -273 -197 -201 -278 -296 -303 -359 l-13
-31 -199 0 -198 0 -32 63 c-25 47 -66 94 -173 197 -251 242 -331 324 -390 403
-32 42 -60 77 -62 77 -12 0 -137 -207 -184 -305 -112 -232 -160 -432 -160
-668 0 -156 21 -284 68 -415 l28 -77 -39 -85 c-22 -47 -43 -88 -46 -93 -4 -4
-34 30 -66 75 -76 107 -164 220 -258 331 -69 82 -75 93 -85 155 -23 139 -34
319 -28 447 13 259 50 441 158 765 62 189 77 222 118 275 131 169 245 346 327
509 53 106 108 245 118 299 4 20 12 40 18 44 15 9 2 -179 -23 -317 -22 -122
-70 -318 -119 -489 -17 -58 -30 -106 -28 -107 1 -1 85 110 187 246 101 137
185 248 186 247 4 -4 13 -288 16 -478 1 -112 4 -239 6 -283 l4 -78 51 58 c308
344 591 763 767 1136 30 65 58 117 61 117 3 1 11 -52 17 -116z m-1071 -1312
c33 -52 157 -182 306 -319 172 -159 249 -247 268 -312 l11 -38 118 -7 c65 -3
174 -3 243 0 l125 8 23 50 c36 77 84 134 294 347 105 107 206 216 225 243 18
26 37 47 41 47 12 0 60 -69 104 -153 84 -158 149 -358 176 -546 15 -106 6
-344 -16 -426 -26 -96 -46 -155 -53 -155 -4 0 -19 21 -34 46 l-27 44 16 63
c13 46 17 101 16 212 -1 127 -5 165 -27 249 -29 112 -91 245 -139 301 l-32 37
-71 -55 c-84 -66 -140 -136 -188 -237 -49 -101 -48 -109 20 -144 65 -34 92
-66 232 -273 254 -378 340 -535 382 -698 15 -58 21 -69 37 -67 36 7 189 2 223
-6 l35 -8 -43 -23 c-79 -41 -136 -102 -157 -170 -6 -21 -5 -23 22 -17 46 10
129 -26 206 -90 37 -30 67 -59 67 -63 0 -4 -17 -13 -37 -20 -21 -7 -69 -31
-107 -53 l-69 -41 64 -16 c71 -18 141 -55 178 -95 l24 -26 -99 -1 c-100 0
-195 -20 -324 -67 -30 -11 -100 -27 -155 -35 -185 -29 -413 -107 -570 -194
-154 -85 -155 -82 35 -83 91 -1 188 -5 215 -10 l50 -8 75 72 c66 65 87 78 179
115 57 24 107 39 112 34 5 -5 80 -150 167 -323 167 -332 241 -507 291 -680 58
-206 66 -260 66 -470 0 -218 -2 -229 -116 -775 -79 -381 -93 -543 -68 -773 19
-183 76 -360 137 -432 21 -24 21 -22 -3 32 -56 131 -88 332 -68 437 l8 43 40
-58 c22 -33 132 -153 246 -269 113 -115 223 -235 246 -265 175 -238 234 -541
158 -805 -40 -136 -94 -238 -266 -495 -87 -129 -175 -268 -197 -308 l-39 -73
-5 58 c-3 32 -12 73 -20 92 l-14 35 -22 -62 c-21 -57 -89 -168 -144 -235 l-23
-28 -1 113 c-1 76 -11 157 -28 248 -39 195 -31 184 -87 121 -59 -66 -116 -173
-145 -270 -18 -64 -23 -72 -32 -55 -16 30 -40 132 -48 204 l-7 64 -43 -47
c-24 -27 -58 -79 -77 -116 l-34 -68 -6 141 c-5 138 -5 142 22 201 16 34 71
117 123 185 161 213 246 348 312 499 33 76 58 151 50 151 -2 0 -18 -28 -35
-62 -67 -132 -154 -247 -293 -383 -51 -49 -111 -112 -133 -140 l-41 -50 4 50
c16 173 42 344 89 587 177 908 241 1336 264 1778 8 155 12 181 34 225 133 270
107 667 -69 1043 -41 89 -151 282 -160 282 -3 0 0 -8 5 -18 30 -56 21 -368
-14 -503 -32 -124 -32 -124 -70 -36 -18 42 -48 103 -66 135 -36 64 -119 185
-124 180 -2 -2 3 -50 11 -108 8 -58 17 -172 20 -255 7 -158 -3 -425 -16 -425
-4 0 -53 115 -110 255 -57 140 -106 255 -109 255 -3 0 -30 -111 -60 -248 -29
-136 -60 -278 -69 -316 l-15 -70 -23 53 c-13 29 -50 87 -82 129 -32 42 -89
118 -127 167 -37 50 -86 127 -108 173 l-40 83 -75 -113 c-103 -155 -168 -294
-200 -428 -15 -60 -29 -110 -32 -110 -3 0 -47 136 -99 303 -52 166 -97 306
-101 310 -10 12 -67 -120 -89 -205 -20 -77 -39 -225 -44 -333 l-2 -60 -39 69
c-52 92 -130 276 -160 379 -27 95 -52 240 -64 367 l-7 85 -61 -100 c-81 -131
-116 -203 -145 -295 -12 -41 -26 -78 -29 -83 -6 -8 -73 109 -161 281 -34 66
-51 115 -60 168 -11 72 -13 74 -30 58 -10 -9 -33 -39 -50 -65 -37 -58 -45 -62
-24 -12 8 20 14 38 11 40 -8 9 -128 -250 -162 -352 -31 -94 -38 -127 -42 -225
-5 -138 10 -209 67 -315 l38 -71 6 -214 c12 -450 86 -960 282 -1945 34 -167
57 -332 71 -490 l6 -80 -22 30 c-13 17 -92 100 -175 185 -161 165 -204 217
-278 345 -50 84 -57 86 -31 8 67 -201 183 -389 359 -583 43 -47 95 -107 116
-133 l39 -49 0 -128 c0 -70 -3 -142 -6 -159 l-7 -32 -18 40 c-29 66 -108 171
-127 171 -4 0 -13 -37 -19 -82 -6 -46 -20 -110 -30 -142 l-18 -60 -32 95 c-35
107 -88 203 -147 267 l-41 45 -12 -54 c-32 -139 -54 -289 -55 -375 -1 -108 -2
-108 -74 -8 -38 53 -86 144 -109 209 -6 17 -9 14 -21 -19 -8 -22 -15 -65 -17
-97 -1 -31 -3 -56 -4 -56 -1 1 -18 34 -38 72 -21 39 -76 131 -123 205 -232
365 -290 478 -340 660 -22 82 -26 116 -26 250 -1 170 10 233 63 347 52 109
111 185 250 318 239 229 307 299 353 362 55 75 58 70 58 -82 0 -116 -24 -229
-70 -332 -24 -56 -26 -63 -9 -43 31 37 74 126 98 205 35 112 51 246 51 430 0
190 -13 288 -79 595 -97 449 -114 562 -115 740 0 314 79 588 297 1025 105 212
246 475 254 475 9 0 142 -69 181 -94 21 -13 62 -49 92 -79 l56 -55 44 8 c25 5
121 10 215 10 169 1 170 1 145 20 -142 108 -452 223 -706 264 -55 9 -129 28
-164 42 -92 37 -181 54 -289 54 l-94 0 24 26 c37 40 107 77 177 95 l64 16 -51
33 c-29 18 -76 43 -107 55 l-55 22 60 55 c73 68 141 103 199 102 39 -1 42 1
36 20 -19 63 -82 131 -149 163 -19 9 -35 20 -35 24 0 18 156 29 227 17 l41 -8
12 53 c12 50 59 178 79 214 6 10 37 72 69 138 129 263 340 562 447 633 26 17
51 32 57 34 12 4 -30 120 -64 179 -38 64 -105 137 -173 187 l-60 44 -25 -31
c-43 -51 -107 -181 -136 -276 -27 -85 -28 -101 -28 -285 -1 -159 3 -203 16
-239 17 -44 17 -45 -10 -93 -15 -26 -30 -48 -34 -48 -8 0 -50 130 -69 215 -8
37 -13 120 -13 215 0 177 20 288 80 461 51 148 186 409 211 409 5 0 14 -9 20
-19z m-1549 -376 c412 -310 769 -677 1074 -1102 l88 -123 -17 -60 -18 -60 -66
0 c-98 0 -341 -53 -322 -70 4 -4 47 -25 96 -45 48 -21 106 -54 129 -74 l41
-37 -69 -33 c-52 -26 -92 -58 -164 -129 l-95 -96 45 -8 c72 -14 130 -30 129
-37 0 -3 -27 -23 -60 -45 -38 -24 -79 -63 -110 -105 l-51 -66 169 -6 c168 -7
236 -19 361 -66 45 -17 50 -27 28 -58 -7 -11 -67 -121 -133 -245 -162 -305
-240 -478 -304 -670 -15 -47 -32 -84 -38 -83 -5 1 -56 40 -114 86 -256 207
-557 388 -834 503 -48 20 -207 77 -353 126 -829 279 -1321 548 -1666 911 -95
99 -213 252 -262 338 -52 93 -91 328 -98 604 -6 205 -9 203 71 61 132 -236
377 -487 620 -636 82 -50 246 -132 253 -126 2 3 -74 118 -169 257 -212 309
-201 290 -148 250 283 -212 655 -401 1023 -520 173 -57 340 -94 606 -137 27
-4 14 6 -55 41 -250 128 -461 360 -554 608 -6 15 -9 27 -7 27 2 0 45 -26 97
-57 212 -127 431 -202 689 -233 118 -14 116 -15 79 27 -49 56 -145 207 -183
287 -42 88 -91 225 -83 232 3 3 123 -35 268 -85 144 -50 263 -90 264 -89 2 2
-17 38 -40 80 -61 109 -135 273 -184 408 -42 113 -111 342 -111 367 0 20 22 6
178 -112z m4992 70 c0 -21 -71 -218 -104 -290 -89 -188 -241 -397 -377 -515
-35 -30 -72 -63 -84 -73 -19 -18 -17 -18 70 -12 410 28 927 169 1293 354 34
17 62 28 62 25 0 -26 -216 -254 -304 -319 -21 -16 -34 -31 -29 -32 18 -6 304
93 453 157 197 84 452 222 601 326 26 18 49 31 52 28 7 -8 -22 -151 -49 -241
-33 -112 -122 -285 -193 -380 -78 -102 -206 -227 -305 -297 -90 -64 -86 -67
69 -41 226 37 510 141 680 249 l57 37 -7 -38 c-24 -131 -123 -347 -221 -484
-77 -106 -190 -221 -292 -297 -47 -35 -76 -62 -66 -62 61 0 494 115 714 190
l115 39 -80 -75 c-188 -177 -424 -334 -730 -484 -277 -136 -466 -211 -860
-342 -247 -82 -378 -134 -542 -217 -258 -129 -497 -291 -748 -505 l-100 -85
-21 77 c-71 261 -187 516 -415 918 -38 67 -69 126 -69 131 0 13 104 59 178 77
97 25 168 29 272 16 56 -7 103 -10 105 -8 6 6 -76 117 -111 150 -16 15 -49 38
-73 51 -40 23 -42 26 -24 35 11 6 49 16 86 22 37 7 67 16 67 20 0 4 -38 46
-83 93 -65 65 -102 93 -160 122 -64 32 -75 40 -65 52 22 27 93 69 181 108 l89
39 -99 28 c-56 16 -137 31 -190 35 l-92 6 99 146 c304 447 694 857 1135 1194
93 71 115 85 115 72z m-7495 -1447 c73 -111 151 -202 276 -323 167 -162 344
-291 584 -424 60 -34 103 -61 95 -61 -41 0 -381 64 -500 94 -196 50 -514 159
-544 187 -7 6 32 599 40 599 0 0 23 -33 49 -72z m9625 -618 c11 -151 22 -283
24 -293 3 -11 -3 -19 -17 -22 -201 -45 -402 -78 -592 -95 -130 -11 -669 -73
-781 -90 -38 -5 -76 -10 -84 -10 -8 0 66 31 165 69 516 195 907 410 1180 648
44 39 81 70 82 69 1 -1 11 -125 23 -276z m-9306 -120 c141 -41 285 -71 599
-125 190 -32 285 -53 325 -71 133 -60 404 -162 647 -244 369 -124 522 -191
763 -334 176 -105 486 -333 539 -398 10 -11 8 -35 -8 -114 -13 -65 -22 -158
-26 -269 -6 -183 2 -245 67 -570 16 -77 27 -141 26 -142 -1 -1 -61 21 -134 48
-235 88 -529 165 -777 203 -191 29 -311 38 -520 38 -364 1 -609 -39 -965 -155
l-155 -50 160 -33 c88 -18 203 -47 255 -64 115 -38 269 -112 298 -143 l21 -22
-212 -2 c-232 -1 -410 -19 -606 -59 -119 -24 -137 -25 -321 -19 -591 18 -964
73 -1283 187 -32 12 -59 24 -61 27 -2 3 228 84 512 180 l515 174 -114 28
c-135 34 -335 129 -444 211 -73 56 -229 207 -247 241 -9 18 -8 19 13 14 35 -9
247 -35 369 -46 110 -10 658 -6 722 5 36 6 34 7 -105 76 -231 114 -431 237
-642 397 -115 87 -279 227 -349 300 l-50 50 160 -68 c487 -210 952 -338 1479
-406 65 -8 124 -15 130 -15 5 0 -48 24 -120 53 -291 118 -554 297 -755 515
-78 85 -170 200 -170 214 0 20 261 49 435 48 72 -1 133 -1 137 -1 4 1 -27 56
-69 124 -134 216 -153 247 -147 247 3 0 52 -13 108 -30z m9896 -54 c0 -10
-127 -163 -192 -232 -118 -124 -245 -217 -350 -254 -48 -17 -50 -19 -21 -20
88 -1 401 51 553 91 103 28 311 96 393 130 37 15 67 24 67 20 0 -15 -157 -196
-221 -256 -89 -83 -139 -123 -244 -195 l-90 -62 131 5 c291 13 567 85 830 217
63 31 114 55 114 53 0 -14 -167 -208 -252 -293 -203 -204 -440 -370 -713 -501
-308 -148 -598 -226 -929 -249 -77 -6 -141 -12 -143 -14 -6 -5 141 -46 237
-66 192 -39 468 -50 645 -25 52 8 55 9 -210 -140 -121 -68 -221 -128 -222
-132 -4 -13 134 -107 237 -161 232 -124 491 -192 726 -192 l95 0 -23 -32 c-12
-18 -53 -65 -91 -104 l-67 -72 -93 -11 c-268 -33 -616 -40 -1007 -20 -326 16
-379 23 -590 77 -168 43 -377 84 -553 107 l-47 6 17 31 c10 16 51 61 90 98 77
72 200 143 306 176 31 10 57 21 57 25 0 16 -199 92 -288 111 -83 17 -123 19
-282 15 -207 -5 -329 -24 -585 -87 -258 -64 -543 -157 -855 -281 -80 -31 -146
-56 -148 -54 -2 1 19 117 47 256 74 382 85 540 49 749 l-11 64 74 69 c342 321
899 648 1202 706 224 43 566 88 1102 146 364 39 559 71 740 120 134 37 336
108 435 154 65 30 80 35 80 27z m-6518 -1899 c-6 -160 8 -213 103 -398 85
-166 133 -300 142 -394 7 -76 3 -75 118 -20 64 31 163 115 207 178 11 14 13
-2 14 -95 2 -125 25 -224 89 -370 63 -146 190 -337 311 -468 34 -36 54 -67 54
-82 0 -37 -64 -387 -140 -770 -38 -191 -74 -380 -79 -420 -7 -59 -16 -83 -46
-128 -48 -71 -91 -166 -112 -248 l-16 -66 -43 165 c-41 161 -89 299 -103 299
-8 0 -88 -222 -122 -338 -12 -40 -24 -70 -27 -67 -3 3 -8 87 -11 186 l-6 181
-45 -76 c-25 -41 -48 -76 -51 -76 -3 0 -9 82 -12 183 -8 240 -24 360 -112 807
-160 814 -230 1297 -251 1737 l-7 141 32 69 c26 55 108 193 115 193 1 0 0 -55
-2 -123z m4667 -43 c42 -9 92 -22 111 -30 l35 -15 -70 -37 c-97 -51 -151 -91
-217 -159 -50 -51 -128 -163 -128 -184 0 -4 26 -10 58 -14 528 -58 1078 -218
1637 -477 169 -79 298 -130 385 -153 36 -10 69 -21 73 -25 10 -9 -164 -60
-322 -95 -260 -59 -523 -86 -796 -84 -159 1 -394 18 -480 34 -30 6 -30 6 14
-35 170 -157 435 -305 669 -376 48 -14 94 -28 102 -31 20 -7 -50 -28 -185 -55
-183 -37 -525 -28 -672 18 -29 9 95 -102 189 -169 307 -218 722 -371 1071
-394 48 -3 90 -9 92 -13 6 -9 -236 -133 -365 -188 -126 -53 -304 -114 -432
-148 -56 -15 -107 -30 -111 -34 -10 -9 109 -72 199 -106 119 -45 231 -66 377
-73 l138 -6 -78 -46 c-43 -26 -123 -71 -177 -100 l-99 -53 -121 17 c-494 68
-1102 328 -1896 812 -152 92 -147 87 -155 152 -4 32 -18 94 -31 139 -60 207
-128 308 -389 574 -208 212 -277 294 -326 392 -33 66 -53 173 -44 243 13 103
47 274 58 288 17 21 344 147 617 237 578 192 981 253 1269 194z m-6179 -60
c181 -20 440 -73 632 -128 172 -50 426 -141 445 -159 20 -20 75 -342 75 -437
0 -181 -72 -286 -405 -594 -252 -233 -349 -396 -378 -630 -11 -91 -12 -91 -64
-146 -28 -30 -104 -113 -167 -185 -185 -209 -247 -259 -437 -355 -93 -46 -337
-137 -346 -128 -2 2 39 35 91 73 78 57 125 105 258 260 90 105 198 223 240
263 49 46 70 72 59 72 -10 0 -56 -4 -103 -10 -47 -5 -240 -26 -430 -45 -375
-39 -692 -72 -1007 -105 -111 -12 -207 -20 -213 -18 -6 2 203 93 465 203 l475
200 -238 6 c-281 7 -414 25 -640 85 -168 45 -168 43 23 75 364 62 809 191
1120 324 201 86 372 167 400 188 18 14 13 15 -55 12 -217 -6 -510 60 -714 162
-112 56 -114 51 40 104 165 57 343 144 481 236 102 68 244 175 238 181 -1 2
-74 -6 -161 -17 -207 -27 -429 -48 -634 -61 -163 -10 -868 -15 -877 -6 -8 7
132 47 257 72 209 43 383 58 673 58 147 0 267 2 267 4 0 16 -48 78 -86 111
-81 71 -293 165 -457 201 -32 8 -60 17 -62 20 -6 9 197 63 335 89 99 18 255
37 380 45 98 6 381 -4 520 -20z m3877 -221 c13 -24 28 -43 31 -43 4 0 31 24
60 53 l54 52 -7 -100 c-29 -456 -112 -995 -274 -1795 -59 -291 -91 -560 -91
-767 0 -48 -4 -82 -9 -79 -5 3 -26 35 -47 70 -21 36 -41 63 -45 61 -4 -3 -7
-71 -8 -152 0 -82 -5 -161 -9 -177 -7 -27 -10 -22 -31 55 -12 46 -44 142 -70
213 l-48 129 -31 -75 c-26 -61 -74 -228 -107 -373 -7 -28 -8 -25 -25 36 -20
78 -63 174 -113 251 -23 37 -37 73 -42 109 -4 30 -42 234 -85 454 -43 220 -90
466 -105 546 l-26 147 226 325 c123 179 236 347 249 373 47 94 75 261 76 443
l0 85 25 -34 c55 -75 62 -120 39 -252 l-7 -38 64 26 c134 55 214 127 272 244
30 60 32 71 32 171 0 119 5 122 52 42z m-6179 -288 c30 -2 135 -8 235 -11 100
-4 183 -8 185 -9 1 -1 -26 -12 -60 -25 -179 -64 -387 -182 -522 -294 -43 -36
-81 -66 -83 -66 -4 0 4 127 12 185 2 17 7 75 11 130 3 55 8 103 10 106 1 3 38
2 81 -3 43 -4 102 -10 131 -13z m9657 -70 c33 -2 113 -4 177 -4 114 -1 118 -2
122 -23 10 -46 17 -220 9 -215 -12 7 -118 55 -208 94 -44 20 -154 64 -245 99
l-165 63 125 -5 c69 -3 152 -7 185 -9z m-4574 -1126 c11 13 21 22 23 20 1 -2
13 -62 25 -134 13 -71 56 -297 97 -501 78 -393 86 -448 105 -754 22 -369 0
-546 -108 -842 l-35 -98 -192 0 -192 0 -52 153 c-78 228 -83 259 -89 527 -7
380 8 530 110 1045 47 237 96 491 108 566 l23 137 79 -71 79 -72 19 24z"/>
<path d="M9766 8997 c-48 -73 -61 -207 -26 -264 11 -18 41 -59 66 -90 48 -59
93 -143 95 -178 3 -49 17 47 18 126 1 99 -9 136 -56 201 -46 64 -74 130 -76
183 -1 25 -3 45 -4 45 -2 0 -9 -10 -17 -23z"/>
<path d="M10228 8963 c-4 -54 -11 -73 -63 -154 l-60 -94 -3 -102 c-3 -57 -1
-115 3 -130 6 -26 8 -24 29 29 25 61 52 103 104 162 44 50 62 94 62 154 0 58
-23 138 -49 171 l-18 24 -5 -60z"/>
<path d="M9497 8930 c-43 -50 -70 -136 -70 -220 -1 -128 43 -184 215 -274 119
-63 203 -129 258 -205 24 -33 46 -59 48 -56 7 6 -28 105 -60 169 -48 99 -115
183 -196 247 -126 99 -184 211 -168 326 3 24 4 43 2 43 -2 0 -16 -13 -29 -30z"/>
<path d="M10495 8882 c0 -127 -37 -183 -212 -329 -28 -23 -73 -75 -99 -115
-46 -69 -119 -238 -112 -260 2 -5 21 16 43 48 53 77 141 147 265 213 154 81
191 120 209 218 17 87 -24 239 -77 286 -16 15 -17 12 -17 -61z"/>
<path d="M9060 8622 c-18 -101 -9 -281 19 -362 41 -119 128 -230 241 -306 68
-46 77 -50 48 -18 -38 41 -58 105 -58 185 0 38 2 69 5 69 16 0 70 -77 73 -104
5 -55 44 -117 86 -140 46 -23 126 -27 150 -7 14 12 23 11 56 -4 22 -10 40 -22
40 -26 0 -13 -46 -40 -92 -54 l-43 -13 80 -6 c44 -4 85 -9 91 -11 6 -1 16 -29
23 -61 7 -33 23 -81 34 -109 l22 -50 6 30 c4 17 7 82 8 146 1 114 0 117 -29
157 -16 23 -65 65 -107 94 -165 113 -243 178 -374 308 -136 136 -198 214 -237
303 -11 26 -23 47 -26 47 -2 0 -10 -31 -16 -68z"/>
<path d="M10900 8645 c-13 -27 -40 -75 -60 -105 -84 -124 -314 -343 -475 -452
-205 -139 -215 -155 -214 -320 1 -62 4 -124 8 -138 8 -24 8 -24 25 15 10 22
26 71 36 110 9 38 21 70 26 71 5 2 45 6 89 9 l80 7 -43 13 c-46 14 -92 41 -92
54 0 4 17 16 38 25 35 16 40 16 76 1 32 -14 47 -15 84 -5 82 20 112 53 133
147 6 30 23 63 45 87 l34 39 0 -75 c0 -87 -19 -150 -58 -192 -32 -34 -19 -28
65 30 119 85 202 203 237 340 19 74 20 265 2 339 l-13 50 -23 -50z"/>
<path d="M9925 7230 c-94 -19 -135 -51 -135 -103 0 -48 94 -144 150 -153 46
-8 50 -22 20 -72 -23 -37 -71 -69 -117 -78 -59 -11 -95 5 -153 67 -37 39 -66
61 -88 65 -45 9 -41 -7 13 -51 25 -20 70 -68 101 -106 30 -38 67 -75 82 -82
36 -17 397 -16 428 1 12 6 44 40 72 75 28 36 73 84 101 108 28 24 51 48 51 53
0 5 -15 6 -32 2 -22 -4 -51 -26 -88 -65 -63 -68 -103 -82 -172 -62 -52 16
-106 67 -114 109 -6 28 -4 32 15 32 35 0 73 24 124 79 49 52 60 91 35 122 -46
55 -179 82 -293 59z"/>
<path d="M9350 7225 c0 -2 13 -33 29 -67 15 -35 34 -94 40 -131 16 -95 44
-164 100 -249 88 -135 224 -238 351 -267 67 -16 227 -13 295 4 89 24 173 73
246 145 92 91 149 202 192 370 13 52 36 119 51 148 l26 52 -42 -7 c-24 -5 -73
-8 -110 -8 -38 0 -68 -3 -68 -6 0 -23 87 -114 138 -145 2 -1 -13 -35 -33 -75
-89 -177 -217 -329 -323 -383 -143 -72 -321 -72 -464 0 -107 54 -234 204 -323
383 -35 70 -36 75 -18 84 28 15 123 115 123 129 0 9 -21 13 -73 13 -39 1 -87
4 -104 8 -18 3 -33 4 -33 2z"/>
</g>
</svg>
